HIERARCHY
ROOT Hips
{
	OFFSET 51.902401 -8.451415 96.093697
	CHANNELS 6 Xposition Yposition Zposition Xrotation Yrotation Zrotation
	JOINT spine
	{
		OFFSET 0.000000 -0.467661 8.132492
		CHANNELS 3 Xrotation Yrotation Zrotation
		JOINT spine1
		{
			OFFSET 0.000000 -0.000002 10.349800
			CHANNELS 3 Xrotation Yrotation Zrotation
			JOINT spine2
			{
				OFFSET 0.000000 -0.000001 9.916992
				CHANNELS 3 Xrotation Yrotation Zrotation
				JOINT Neck
				{
					OFFSET 0.000000 -1.213904 25.460999
					CHANNELS 3 Xrotation Yrotation Zrotation
					JOINT Head
					{
						OFFSET 0.000000 -0.000001 7.692444
						CHANNELS 3 Xrotation Yrotation Zrotation
						End Site
						{
							OFFSET 0.000000 6.140627 18.619995
						}
					}
				}
				JOINT RightShoulder
				{
					OFFSET -4.175751 0.581443 10.709595
					CHANNELS 3 Xrotation Yrotation Zrotation
					JOINT RightArm
					{
						OFFSET 0.000000 -0.000002 14.046600
						CHANNELS 3 Xrotation Yrotation Zrotation
						JOINT RightArmRoll
						{
							OFFSET 0.000000 -0.000002 7.090973
							CHANNELS 3 Xrotation Yrotation Zrotation
							JOINT RightForeArm
							{
								OFFSET 0.000000 -0.000003 20.653503
								CHANNELS 3 Xrotation Yrotation Zrotation
								JOINT RightForeArmRoll
								{
									OFFSET 0.000000 -0.000002 7.957184
									CHANNELS 3 Xrotation Yrotation Zrotation
									JOINT RightHand
									{
										OFFSET 0.000000 -0.000002 15.968292
										CHANNELS 3 Xrotation Yrotation Zrotation
										End Site
										{
											OFFSET 0.000000 0.000000 0.100006
										}
									}
								}
							}
						}
					}
				}
				JOINT LeftShoulder
				{
					OFFSET 4.175751 0.581443 10.709595
					CHANNELS 3 Xrotation Yrotation Zrotation
					JOINT LeftArm
					{
						OFFSET 0.000000 -0.000002 14.046600
						CHANNELS 3 Xrotation Yrotation Zrotation
						JOINT LeftArmRoll
						{
							OFFSET 0.000000 -0.000002 7.090973
							CHANNELS 3 Xrotation Yrotation Zrotation
							JOINT LeftForeArm
							{
								OFFSET 0.000000 -0.000003 20.653503
								CHANNELS 3 Xrotation Yrotation Zrotation
								JOINT LeftForeArmRoll
								{
									OFFSET 0.000000 -0.000002 7.957184
									CHANNELS 3 Xrotation Yrotation Zrotation
									JOINT LeftHand
									{
										OFFSET 0.000000 -0.000002 15.968292
										CHANNELS 3 Xrotation Yrotation Zrotation
										End Site
										{
											OFFSET 0.000000 0.000000 0.100006
										}
									}
								}
							}
						}
					}
				}
			}
		}
	}
	JOINT RightUpLeg
	{
		OFFSET -7.208340 1.108840 -1.321823
		CHANNELS 3 Xrotation Yrotation Zrotation
		JOINT RightUpLegRoll
		{
			OFFSET 0.000000 -0.000003 18.723801
			CHANNELS 3 Xrotation Yrotation Zrotation
			JOINT RightLeg
			{
				OFFSET 0.000000 0.000004 -23.186600
				CHANNELS 3 Xrotation Yrotation Zrotation
				JOINT RightLegRoll
				{
					OFFSET 0.000000 -0.000004 23.262398
					CHANNELS 3 Xrotation Yrotation Zrotation
					JOINT RightFoot
					{
						OFFSET 0.000000 -0.000003 19.362106
						CHANNELS 3 Xrotation Yrotation Zrotation
						JOINT RightToeBase
						{
							OFFSET 0.000000 -0.000003 16.185699
							CHANNELS 3 Xrotation Yrotation Zrotation
							End Site
							{
								OFFSET 0.006859 0.903520 7.838623
							}
						}
					}
				}
			}
		}
	}
	JOINT LeftUpLeg
	{
		OFFSET 7.208340 1.108840 -1.321823
		CHANNELS 3 Xrotation Yrotation Zrotation
		JOINT LeftUpLegRoll
		{
			OFFSET 0.000000 -0.000003 18.723900
			CHANNELS 3 Xrotation Yrotation Zrotation
			JOINT LeftLeg
			{
				OFFSET 0.000000 -0.000004 23.186508
				CHANNELS 3 Xrotation Yrotation Zrotation
				JOINT LeftLegRoll
				{
					OFFSET 0.000000 -0.000004 23.477509
					CHANNELS 3 Xrotation Yrotation Zrotation
					JOINT LeftFoot
					{
						OFFSET 0.000000 -0.000003 19.147003
						CHANNELS 3 Xrotation Yrotation Zrotation
						JOINT LeftToeBase
						{
							OFFSET 0.000000 -0.000003 16.185699
							CHANNELS 3 Xrotation Yrotation Zrotation
							End Site
							{
								OFFSET -0.030746 0.903521 7.838623
							}
						}
					}
				}
			}
		}
	}
}
MOTION
Frames: 9
Frame Time: 0.041667
53.022602 -10.236418 96.112892 -3.086977 1.078723 0.653841 -1.201655 -0.442606 0.047061 1.600559 -0.881708 0.094573 3.245724 -0.880620 0.105271 13.193438 0.511746 -8.763597 -0.145175 -2.209893 -8.629838 -20.162158 -58.675997 -23.838306 -39.987599 -114.683398 -15.551072 0.000001 -0.000001 -0.000005 3.813176 -6.497140 -0.481781 0.000001 0.000007 -3.002570 -5.000237 -7.999173 0.000104 -13.446270 61.307471 15.966503 -41.858958 115.173942 30.963887 0.000002 0.000000 0.000005 0.070476 9.256307 0.965308 -0.000001 -0.000001 3.021021 -5.000230 7.998853 -0.000133 -0.734767 -172.960580 3.799606 179.999991 -0.000005 -1.020002 170.613986 -1.728566 -0.560689 0.000001 -0.000004 0.018549 69.231638 6.348735 3.528550 25.458164 -7.355620 0.001824 -0.218029 172.145055 -2.733931 -0.000005 -0.000005 -0.944974 -12.741169 1.664231 0.723468 0.000004 -0.000001 -0.195679 73.317143 -6.223694 -3.735314 25.459090 7.355623 -0.003217 
53.018906 -10.221520 96.105392 -3.089374 1.082954 0.654703 -1.203204 -0.443851 0.047895 1.598180 -0.884495 0.095830 3.243346 -0.883383 0.106550 13.192457 0.520449 -8.771727 -0.138628 -2.225742 -8.636754 -20.166793 -58.658949 -23.843967 -39.956053 -114.693930 -15.516344 0.000002 -0.000000 -0.000001 3.818465 -6.493930 -0.482291 0.000005 0.000008 -3.002569 -5.000233 -7.999172 0.000106 -13.432011 61.325858 15.950529 -41.890981 115.159066 30.992444 0.000001 -0.000000 0.000006 0.070476 9.255156 0.966085 0.000002 -0.000002 3.021021 -5.000232 7.998854 -0.000130 -0.731557 -172.968571 3.795811 179.999991 -0.000005 -1.020002 170.611828 -1.727556 -0.560589 0.000002 -0.000004 0.018548 69.235729 6.348047 3.529390 25.458168 -7.355622 0.001823 -0.219271 172.138061 -2.737455 -0.000005 -0.000004 -0.944974 -12.749765 1.663111 0.723471 0.000004 -0.000002 -0.195636 73.321200 -6.222815 -3.738462 25.459091 7.355622 -0.003216 
53.011402 -10.228817 96.116493 -3.091746 1.087335 0.655602 -1.204798 -0.445170 0.048767 1.595801 -0.887439 0.097147 3.240959 -0.886304 0.107892 13.191777 0.529402 -8.779968 -0.131987 -2.241793 -8.643773 -20.171442 -58.641600 -23.849644 -39.924949 -114.703424 -15.483188 0.000001 -0.000000 -0.000002 3.823882 -6.491384 -0.482818 0.000001 0.000007 -3.002571 -5.000235 -7.999173 0.000104 -13.417199 61.344818 15.933906 -41.921447 115.144873 31.019168 0.000002 0.000000 0.000006 0.070473 9.254006 0.966896 0.000000 -0.000001 3.021022 -5.000232 7.998853 -0.000134 -0.728387 -172.976562 3.791820 179.999991 -0.000006 -1.020002 170.609588 -1.726562 -0.561492 0.000002 -0.000004 0.018548 69.239916 6.347296 3.530413 25.458166 -7.355620 0.001823 -0.220645 172.131053 -2.741071 -0.000005 -0.000004 -0.944974 -12.758463 1.661991 0.723473 0.000005 -0.000002 -0.195571 73.325346 -6.221846 -3.741888 25.459086 7.355622 -0.003217 
53.006702 -10.241320 96.102295 -3.094123 1.091806 0.656526 -1.206395 -0.446539 0.049666 1.593413 -0.890493 0.098506 3.238561 -0.889332 0.109276 13.191094 0.538533 -8.788284 -0.125279 -2.257994 -8.650856 -20.176141 -58.624012 -23.855388 -39.891908 -114.713505 -15.448520 0.000002 -0.000001 -0.000004 3.829371 -6.489318 -0.483361 0.000005 0.000007 -3.002570 -5.000235 -7.999171 0.000106 -13.401962 61.364107 15.916815 -41.953361 115.129956 31.047414 0.000001 0.000001 0.000007 0.070476 9.252857 0.967737 0.000002 -0.000001 3.021021 -5.000229 7.998854 -0.000132 -0.725237 -172.984554 3.787686 179.999991 -0.000005 -1.020002 170.607265 -1.725566 -0.561398 0.000002 -0.000004 0.018548 69.244205 6.346554 3.531332 25.458168 -7.355623 0.001825 -0.222103 172.124073 -2.744754 -0.000005 -0.000004 -0.944973 -12.767359 1.660849 0.723475 0.000004 -0.000003 -0.195494 73.329478 -6.220848 -3.745413 25.459088 7.355625 -0.003217 
53.010403 -10.239918 96.112495 -3.096497 1.096347 0.657463 -1.208018 -0.447937 0.050580 1.591014 -0.893608 0.099888 3.236174 -0.892423 0.110685 13.190519 0.547766 -8.796650 -0.118536 -2.274275 -8.657965 -20.180742 -58.606247 -23.861018 -39.859908 -114.722699 -15.415368 0.000004 -0.000001 -0.000005 3.834913 -6.487509 -0.483912 0.000003 0.000007 -3.002570 -5.000234 -7.999173 0.000105 -13.386446 61.383532 15.899393 -41.985142 115.114970 31.075489 0.000002 0.000001 0.000007 0.070478 9.251717 0.968589 -0.000000 -0.000001 3.021021 -5.000232 7.998854 -0.000132 -0.722095 -172.993542 3.783492 179.999991 -0.000005 -1.020002 170.604930 -1.724570 -0.561306 0.000002 -0.000004 0.018549 69.248488 6.345810 3.532251 25.458168 -7.355620 0.001824 -0.223615 172.116068 -2.748467 -0.000005 -0.000005 -0.944973 -12.776256 1.659719 0.723475 0.000004 -0.000002 -0.195407 73.333617 -6.219875 -3.748941 25.459086 7.355624 -0.003216 
53.007305 -10.242517 96.105995 -3.098872 1.100898 0.658406 -1.209636 -0.449344 0.051497 1.588614 -0.896741 0.101277 3.233776 -0.895530 0.112100 13.190039 0.557023 -8.805015 -0.111778 -2.290585 -8.665089 -20.185330 -58.588495 -23.866655 -39.826355 -114.732602 -15.380737 0.000001 -0.000001 -0.000005 3.840457 -6.485771 -0.484467 0.000004 0.000009 -3.002568 -5.000235 -7.999173 0.000103 -13.370832 61.402957 15.881853 -42.016954 115.099998 31.103575 0.000002 0.000001 0.000007 0.070476 9.250567 0.969444 0.000003 -0.000002 3.021019 -5.000230 7.998853 -0.000132 -0.718958 -173.001547 3.779264 179.999991 -0.000005 -1.020001 170.602566 -1.723561 -0.561212 0.000001 -0.000004 0.018549 69.252866 6.345038 3.533156 25.458166 -7.355621 0.001824 -0.225133 172.109060 -2.752190 -0.000005 -0.000004 -0.944974 -12.785254 1.658577 0.723477 0.000004 -0.000002 -0.195318 73.337824 -6.218815 -3.752652 25.459088 7.355621 -0.003216 
53.005005 -10.245117 96.110291 -3.101257 1.105419 0.659341 -1.211248 -0.450735 0.052407 1.586226 -0.899842 0.102653 3.231379 -0.898606 0.113502 13.189459 0.566230 -8.813365 -0.105048 -2.306846 -8.672190 -20.189978 -58.570826 -23.872326 -39.793017 -114.742588 -15.345994 0.000001 -0.000001 -0.000002 3.845977 -6.483891 -0.485016 0.000003 0.000008 -3.002569 -5.000236 -7.999173 0.000106 -13.355325 61.422286 15.864445 -42.048806 115.085027 31.131732 0.000001 0.000003 0.000007 0.070476 9.249417 0.970295 0.000001 -0.000001 3.021022 -5.000232 7.998854 -0.000132 -0.715819 -173.010549 3.775089 179.999991 -0.000005 -1.020002 170.600230 -1.722567 -0.561120 0.000002 -0.000005 0.018548 69.257162 6.344295 3.534075 25.458168 -7.355622 0.001824 -0.226632 172.102066 -2.755897 -0.000005 -0.000004 -0.944974 -12.794147 1.657436 0.723475 0.000004 -0.000002 -0.195235 73.341963 -6.217846 -3.756180 25.459086 7.355625 -0.003218 
53.003399 -10.237520 96.100182 -3.103629 1.109870 0.660259 -1.212847 -0.452091 0.053297 1.583837 -0.902865 0.103999 3.228991 -0.901605 0.114874 13.188779 0.575311 -8.821666 -0.098357 -2.323015 -8.679236 -20.194672 -58.553245 -23.878041 -39.761653 -114.752000 -15.313033 0.000001 -0.000000 -0.000005 3.851445 -6.481688 -0.485560 0.000003 0.000008 -3.002570 -5.000234 -7.999173 0.000105 -13.340118 61.441458 15.847383 -42.080884 115.070137 31.160173 -0.000001 0.000001 0.000007 0.070472 9.248277 0.971126 0.000003 -0.000001 3.021021 -5.000232 7.998853 -0.000133 -0.712657 -173.018527 3.770991 179.999991 -0.000005 -1.020002 170.597922 -1.721571 -0.561026 0.000002 -0.000004 0.018548 69.261451 6.343551 3.534991 25.458166 -7.355621 0.001824 -0.228065 172.094061 -2.759559 -0.000005 -0.000004 -0.944974 -12.802945 1.656306 0.723474 0.000004 -0.000002 -0.195159 73.346096 -6.216844 -3.759702 25.459084 7.355622 -0.003216 
53.001602 -10.242020 96.103287 -3.106017 1.114201 0.661150 -1.214418 -0.453387 0.054158 1.581448 -0.905762 0.105296 3.226614 -0.904479 0.116195 13.188001 0.584191 -8.829869 -0.091743 -2.339017 -8.686197 -20.199176 -58.536019 -23.883587 -39.729711 -114.762409 -15.278563 0.000002 -0.000000 -0.000003 3.856829 -6.478942 -0.486085 0.000003 0.000008 -3.002571 -5.000234 -7.999170 0.000105 -13.325346 61.460187 15.830808 -42.112990 115.055261 31.188730 -0.000000 0.000001 0.000007 0.070473 9.247127 0.971926 0.000001 -0.000001 3.021020 -5.000232 7.998855 -0.000133 -0.709477 -173.026532 3.767058 179.999991 -0.000005 -1.020002 170.595709 -1.720577 -0.560930 0.000002 -0.000004 0.018548 69.265549 6.342862 3.535930 25.458168 -7.355620 0.001823 -0.229399 172.087067 -2.763137 -0.000005 -0.000004 -0.944975 -12.811642 1.655186 0.723476 0.000005 -0.000002 -0.195102 73.350248 -6.215904 -3.763033 25.459086 7.355622 -0.003217 
